<svg width="50" height="54" viewBox="0 0 50 54" fill="none" xmlns="http://www.w3.org/2000/svg">
<path fill-rule="evenodd" clip-rule="evenodd" d="M45.0752 30.5567L47.7519 32.118C49.7594 33.4562 50.4286 36.1327 49.3133 38.5862L47.0827 42.3779C45.9674 44.3853 43.2908 45.2775 41.0602 43.9392L38.3835 42.3779C35.4837 40.5936 31.6917 42.824 31.6917 46.1696V49.0692C31.6917 51.5226 29.6842 53.53 27.2306 53.53H22.7694C20.3158 53.53 18.3083 51.5226 18.3083 49.0692V45.9466C18.3083 42.601 14.5163 40.3705 11.6165 42.1549L8.93984 43.4931C6.93232 44.8314 4.25562 44.1622 2.91728 41.9318L0.686697 38.1401C-0.651651 36.1327 0.0175228 33.4562 2.2481 32.118L4.9248 30.5567C7.82455 28.9954 7.82455 24.5346 4.9248 22.9733L2.2481 21.412C0.240581 20.0737 -0.428593 17.3972 0.686697 15.1668L2.91728 11.3751C4.03257 9.36775 6.70926 8.47558 8.93984 9.81383L11.6165 11.1521C14.5163 12.9364 18.3083 10.706 18.3083 7.36037V4.46083C18.3083 2.00737 20.3158 0 22.7694 0H27.2306C29.6842 0 31.6917 2.00737 31.6917 4.46083V7.58342C31.6917 10.929 35.4837 13.1595 38.3835 11.3751L41.0602 9.81383C43.0677 8.47558 45.7444 9.14471 47.0827 11.3751L49.3133 15.1668C50.6517 17.1742 49.9825 19.8507 47.7519 21.189L45.0752 22.7502C42.1755 24.5346 42.1755 28.7724 45.0752 30.5567ZM24.9995 41.997C33.2838 41.997 39.9995 35.2818 39.9995 26.9981C39.9995 18.7144 33.2838 11.9992 24.9995 11.9992C16.7152 11.9992 9.99951 18.7144 9.99951 26.9981C9.99951 35.2818 16.7152 41.997 24.9995 41.997Z" fill="#074DA1"/>
<path d="M28.8187 31.9323H28.3187V32.4323V38.45C28.3187 38.463 28.3135 38.4751 28.3048 38.4838C28.2962 38.4925 28.2848 38.4971 28.2732 38.4971H21.7278C21.7162 38.4971 21.7048 38.4925 21.6961 38.4838C21.6875 38.4751 21.6823 38.463 21.6823 38.45V32.4323V31.9323H21.1823H20.3641C20.1355 31.9323 19.916 31.8413 19.754 31.6787C19.5918 31.5161 19.5005 31.2953 19.5005 31.0647V27.2362C19.5041 26.3114 19.8155 25.4144 20.385 24.6876C20.9547 23.9606 21.75 23.4454 22.6445 23.2237L23.5857 22.9903L22.8497 22.3589C22.3342 21.9166 21.966 21.3264 21.7949 20.6675C21.6239 20.0086 21.6583 19.3129 21.8934 18.6743C22.1286 18.0356 22.5532 17.4849 23.1097 17.096C23.6662 16.7071 24.328 16.4988 25.0059 16.4988C25.6839 16.4988 26.3457 16.7071 26.9022 17.096C27.4587 17.4849 27.8833 18.0356 28.1185 18.6743C28.3536 19.3129 28.388 20.0086 28.217 20.6675C28.0459 21.3264 27.6777 21.9166 27.1622 22.3589L26.4284 22.9884L27.3663 23.2234C28.2589 23.447 29.052 23.9629 29.6198 24.6898C30.1874 25.4165 30.4974 26.3124 30.5005 27.2359V31.0647C30.5005 31.2953 30.4091 31.5161 30.247 31.6787C30.0849 31.8413 29.8654 31.9323 29.6369 31.9323H28.8187Z" stroke="#074DA1"/>
</svg>
